<?xml version="1.0" encoding="utf-8"?>
<!-- Generator: Adobe Illustrator 16.0.0, SVG Export Plug-In . SVG Version: 6.00 Build 0)  -->
<!DOCTYPE svg PUBLIC "-//W3C//DTD SVG 1.1//EN" "http://www.w3.org/Graphics/SVG/1.1/DTD/svg11.dtd">
<svg version="1.1" id="Layer_1" xmlns="http://www.w3.org/2000/svg" xmlns:xlink="http://www.w3.org/1999/xlink" x="0px" y="0px"
	 width="155.615px" height="141.73px" viewBox="-13.885 0 155.615 141.73" enable-background="new -13.885 0 155.615 141.73"
	 xml:space="preserve">
<path fill="#F26C59" d="M4.265,34.623c0.05,0.537,0.079,1.067,0.107,1.569c0.244,2.421,0.508,4.872,0.717,7.293
	c0.186,1.892,0.344,3.755,0.48,5.618c0.128,1.978,0.853,3.754,1.619,5.502c1.784,4.206,3.891,8.255,6.146,12.188
	c2.243,3.948,4.607,7.83,7.138,11.586c2.845,4.205,5.931,8.246,9.207,12.107c1.468,1.722,3.059,3.353,4.577,5.03
	c1.176,1.305,2.631,1.991,4.313,2.448c2.766,0.769,5.532,1.621,8.275,2.443c0.667,0.188,1.09,0.646,1.376,1.256
	c0.693,1.597,1.41,3.201,2.105,4.787c0.315,0.693,0.401,0.764,1.167,0.764c12.875,0,25.759,0,38.647,0
	c0.559,0,0.874-0.178,1.09-0.686c0.666-1.549,1.39-3.088,2.049-4.658c0.315-0.803,0.882-1.34,1.727-1.569
	c2.564-0.773,5.088-1.611,7.674-2.32c1.591-0.424,2.787-1.355,3.876-2.5c3.01-3.088,5.481-6.601,7.955-10.118
	c0.931-1.296,2.02-2.521,3.036-3.811c3.011-3.775,5.753-7.738,8.298-11.829c2.057-3.275,4.104-6.528,6.02-9.859
	c1.539-2.63,2.871-5.346,4.305-8.011c0.459-0.881,0.459-1.834,0.56-2.758c0.186-1.893,0.344-3.755,0.537-5.646
	c0.102-1.175,0.18-2.314,0.294-3.497c0.138-1.455,0.295-2.894,0.423-4.355c0.029-0.323,0.05-0.639,0.079-0.988"/>
<path fill="none" stroke="#6D6E71" stroke-width="3" stroke-linecap="round" stroke-miterlimit="10" d="M-3.135,26.615h132.448
	c-0.029,0.35-0.05,0.665-0.079,0.988c-0.128,1.462-0.285,2.9-0.423,4.355c-0.114,1.183-0.192,2.322-0.294,3.497
	c-0.193,1.891-0.352,3.753-0.537,5.646c-0.101,0.924-0.101,1.877-0.56,2.758c-1.434,2.665-2.766,5.381-4.305,8.011
	c-1.915,3.331-3.963,6.584-6.02,9.859c-2.545,4.091-5.287,8.054-8.298,11.829c-1.017,1.29-2.105,2.515-3.036,3.811
	c-2.474,3.518-4.945,7.03-7.955,10.118c-1.089,1.145-2.285,2.076-3.876,2.5c-2.586,0.709-5.109,1.547-7.674,2.32
	c-0.845,0.229-1.411,0.767-1.727,1.569c-0.659,1.57-1.383,3.109-2.049,4.658c-0.216,0.508-0.531,0.686-1.09,0.686
	c-12.889,0-25.772,0-38.647,0c-0.766,0-0.852-0.07-1.167-0.764c-0.695-1.586-1.412-3.19-2.105-4.787
	c-0.286-0.61-0.709-1.067-1.376-1.256c-2.743-0.822-5.51-1.675-8.275-2.443c-1.683-0.457-3.138-1.144-4.313-2.448
	c-1.519-1.678-3.109-3.309-4.577-5.03c-3.276-3.861-6.362-7.902-9.207-12.107c-2.53-3.756-4.895-7.638-7.138-11.586
	c-2.256-3.933-4.362-7.981-6.146-12.188c-0.767-1.748-1.491-3.524-1.619-5.502c-0.137-1.863-0.295-3.727-0.48-5.618
	c-0.209-2.421-0.473-4.872-0.717-7.293c-0.028-0.502-0.058-1.032-0.107-1.569"/>
</svg>
