<?xml version="1.0" encoding="utf-8"?>
<!-- Generator: Adobe Illustrator 16.0.0, SVG Export Plug-In . SVG Version: 6.00 Build 0)  -->
<!DOCTYPE svg PUBLIC "-//W3C//DTD SVG 1.1//EN" "http://www.w3.org/Graphics/SVG/1.1/DTD/svg11.dtd">
<svg version="1.1" id="Layer_1" xmlns="http://www.w3.org/2000/svg" xmlns:xlink="http://www.w3.org/1999/xlink" x="0px" y="0px"
	 width="141.73px" height="141.73px" viewBox="0 0 141.73 141.73" enable-background="new 0 0 141.73 141.73" xml:space="preserve">
<g id="XMLID_1_">
	<g>
		<path fill="#EBB50E" d="M42.092,35.044c-2.199,0-4.397,0-6.591,0c0,0.214,0,0.509,0,0.729c0.145,3.962,0.292,7.997,0.437,11.959
			c0,0.81,0.071,1.611,0.071,2.421c0.158,2.859,0.086,5.724,0.223,8.583c0.151,3.375,0.365,6.679,0.587,9.98
			c0.222,2.858,0.517,5.718,0.738,8.585c0.443,4.619,0.803,9.241,1.837,13.721c0.442,1.906,0.951,3.738,1.833,5.422
			c0.373,0.803,0.95,1.391,1.754,1.686c2.058,0.738,4.122,1.619,6.162,2.279c1.255,0.443,1.836,1.031,1.836,2.42
			c0,1.324,0.292,2.715,0.448,4.043c0.073,0.656,0.145,0.793,0.804,0.793c4.25,0,8.506,0.08,12.841,0.08c7.552,0,15.182,0,22.812,0
			c0.955,0,1.906-0.08,2.867-0.08c0.373,0,0.58-0.215,0.58-0.58c0.158-1.684,0.371-3.301,0.518-4.994
			c0.069-0.729,0.364-1.096,1.024-1.391c1.625-0.586,3.23-1.166,4.842-1.832c0.587-0.217,1.104-0.443,1.62-0.66
			c0.508-0.215,0.961-0.666,1.096-1.254c0.295-1.024,0.517-2.051,0.812-3.08c0.292-1.168,0.587-2.424,0.952-3.59
			c0.881-3.225,1.541-6.463,2.049-9.759c0.882-5.503,1.325-11.078,1.754-16.659c0.222-3.303,0.453-6.677,0.59-9.979
			c0.157-2.05,0.223-4.105,0.292-6.162c0.157-3.962,0.295-7.854,0.518-11.814c0-0.288,0-0.581,0-0.874c-2.351,0-4.621,0-6.972,0"/>
	</g>
</g>
<path fill="none" stroke="#6D6E71" stroke-width="3" stroke-miterlimit="10" d="M90.424,30.365H32.092c-2.199,0-4.397,0-6.591,0
	c0,0.214,0,0.509,0,0.729c0.145,3.962,0.292,7.997,0.437,11.959c0,0.81,0.071,1.611,0.071,2.421
	c0.158,2.859,0.086,5.724,0.223,8.583c0.151,3.375,0.365,6.679,0.587,9.98c0.222,2.858,0.517,5.718,0.738,8.585
	c0.443,4.619,0.803,9.241,1.837,13.721c0.442,1.906,0.951,3.738,1.833,5.422c0.373,0.803,0.95,1.391,1.754,1.686
	c2.058,0.738,4.122,1.619,6.162,2.279c1.255,0.443,1.836,1.031,1.836,2.42c0,1.324,0.292,2.715,0.448,4.043
	c0.073,0.656,0.145,0.793,0.804,0.793c4.25,0,8.506,0.08,12.841,0.08c7.552,0,15.182,0,22.812,0c0.955,0,1.906-0.08,2.867-0.08
	c0.373,0,0.58-0.215,0.58-0.58c0.158-1.684,0.371-3.301,0.518-4.994c0.069-0.729,0.364-1.096,1.024-1.391
	c1.625-0.586,3.23-1.166,4.842-1.832c0.587-0.217,1.104-0.443,1.62-0.66c0.508-0.215,0.961-0.666,1.096-1.254
	c0.295-1.024,0.517-2.051,0.812-3.08c0.292-1.168,0.587-2.424,0.952-3.59c0.881-3.225,1.541-6.463,2.049-9.759
	c0.882-5.503,1.325-11.078,1.754-16.659c0.222-3.303,0.453-6.677,0.59-9.979c0.157-2.05,0.223-4.105,0.292-6.162
	c0.157-3.962,0.295-7.854,0.518-11.814c0-0.288,0-0.581,0-0.874c-2.351,0-4.621,0-6.972,0"/>
</svg>
