<?xml version="1.0" encoding="utf-8"?>
<!-- Generator: Adobe Illustrator 16.0.0, SVG Export Plug-In . SVG Version: 6.00 Build 0)  -->
<!DOCTYPE svg PUBLIC "-//W3C//DTD SVG 1.1//EN" "http://www.w3.org/Graphics/SVG/1.1/DTD/svg11.dtd">
<svg version="1.1" id="Layer_1" xmlns="http://www.w3.org/2000/svg" xmlns:xlink="http://www.w3.org/1999/xlink" x="0px" y="0px"
	 width="283.46px" height="141.73px" viewBox="0 0 283.46 141.73" enable-background="new 0 0 283.46 141.73" xml:space="preserve">
<g>
	<g id="XMLID_3_">
		<g>
			<path fill="#F16D5A" d="M231.39,51.97h3.801c0,0.19-0.021,0.33-0.021,0.49c-0.1,2.14-0.17,4.27-0.27,6.41h-38.46
				c-0.07-2.17-0.16-4.33-0.25-6.5c-0.011-0.13,0-0.26,0-0.4h3.579h0.351H231.39z"/>
			<path fill="#FFFFFF" d="M234.9,58.87c-0.04,1.11-0.091,2.22-0.141,3.33c-0.09,1.81-0.21,3.61-0.35,5.41
				c-0.22,3.02-0.46,6.041-0.94,9.041c-0.27,1.77-0.63,3.55-1.12,5.279c-0.18,0.67-0.35,1.311-0.52,1.98
				c-0.15,0.55-0.271,1.109-0.41,1.67c-0.09,0.3-0.32,0.51-0.61,0.64c-0.279,0.13-0.56,0.261-0.859,0.37
				c-0.88,0.33-1.76,0.68-2.641,1.01c-0.35,0.131-0.54,0.36-0.569,0.75c-0.07,0.9-0.181,1.801-0.271,2.7
				c-0.01,0.22-0.13,0.29-0.33,0.3c-0.52,0.021-1.02,0.051-1.529,0.051h-12.4c-2.32-0.021-4.64-0.03-6.95-0.051
				c-0.35,0-0.41-0.05-0.439-0.399c-0.08-0.75-0.21-1.49-0.21-2.24c0-0.729-0.351-1.05-1-1.27c-1.12-0.391-2.221-0.83-3.351-1.24
				c-0.46-0.17-0.76-0.49-0.96-0.92c-0.47-0.94-0.77-1.92-0.979-2.931c-0.57-2.46-0.75-4.949-1-7.43c-0.141-1.56-0.29-3.13-0.4-4.69
				c-0.13-1.79-0.25-3.58-0.34-5.39c-0.05-1.56-0.04-3.11-0.1-4.67c-0.011-0.43-0.03-0.87-0.04-1.3H234.9z"/>
			<path fill="#FFFFFF" d="M185.3,51.97h3.13c-0.04,0.56-0.09,1.08-0.13,1.6c-0.14,1.76-0.3,3.54-0.42,5.3H129
				c-0.07-1.72-0.27-3.44-0.4-5.15c-0.06-0.58-0.1-1.16-0.15-1.75h3.31h0.19H132h52.92h0.19H185.3z"/>
			<path fill="#21597B" d="M187.88,58.87c-0.01,0.23-0.03,0.45-0.04,0.68c-0.07,0.96-0.25,1.87-0.77,2.73
				c-0.051,0.09-0.101,0.21-0.141,0.33c-0.22,0.66-0.39,1.34-0.66,1.97c-0.729,1.66-1.449,3.31-2.229,4.93
				c-1.34,2.811-2.74,5.59-4.1,8.391c-0.381,0.81-0.79,1.609-1.091,2.439c-0.59,1.63-1.27,3.22-2.34,4.61
				c-0.42,0.55-0.85,1.09-1.54,1.319c-0.279,0.091-0.54,0.19-0.81,0.28c-1.11,0.37-2.24,0.75-3.351,1.11
				c-0.39,0.13-0.59,0.37-0.71,0.75c-0.26,0.87-0.529,1.729-0.81,2.6c-0.07,0.26-0.21,0.37-0.5,0.37c-1.79,0-3.58,0.021-5.37,0.021
				h-7.49c-2.68,0-5.35-0.021-8.04-0.021c-0.42,0-0.46-0.03-0.569-0.42c-0.28-0.85-0.551-1.68-0.801-2.54
				c-0.119-0.4-0.329-0.64-0.72-0.76c-1.359-0.43-2.7-0.9-4.06-1.3c-0.86-0.24-1.52-0.721-2.07-1.431
				c-1.45-1.89-2.54-3.979-3.54-6.12c-0.95-2.02-1.86-4.05-2.77-6.1c-1.17-2.64-2.28-5.3-3.18-8.04c-0.6-1.89-1.09-3.8-1.18-5.8
				H187.88z"/>
			<path fill="#EAB61F" d="M48.5,52.01h72.56c-0.03,0.21-0.03,0.38-0.04,0.55c-0.09,0.78-0.16,1.58-0.23,2.37
				c-0.06,0.63-0.1,1.25-0.16,1.89c-0.1,1.01-0.19,2.03-0.29,3.06H49.21c-0.07-1.03-0.16-2.04-0.26-3.05
				c-0.11-1.31-0.26-2.64-0.39-3.95C48.55,52.59,48.53,52.32,48.5,52.01z"/>
			<path fill="#FFFFFF" d="M49.21,59.88h71.13c-0.06,0.5-0.06,1.02-0.3,1.5c-0.78,1.44-1.52,2.91-2.34,4.33
				c-1.04,1.8-2.15,3.58-3.26,5.35c-1.39,2.209-2.87,4.38-4.5,6.42c-0.55,0.699-1.14,1.35-1.66,2.069c-1.33,1.9-2.67,3.79-4.3,5.48
				c-0.59,0.609-1.24,1.109-2.11,1.359c-1.4,0.391-2.77,0.841-4.16,1.261c-0.46,0.13-0.76,0.399-0.93,0.85
				c-0.36,0.85-0.75,1.69-1.12,2.52c-0.11,0.28-0.28,0.381-0.59,0.381H74.12c-0.42,0-0.46-0.051-0.64-0.42
				c-0.37-0.87-0.76-1.73-1.15-2.61c-0.14-0.34-0.38-0.57-0.74-0.68c-1.48-0.44-2.98-0.91-4.48-1.32c-0.91-0.24-1.71-0.63-2.34-1.32
				c-0.83-0.91-1.69-1.79-2.48-2.729c-1.78-2.11-3.45-4.29-5-6.57c-1.37-2.05-2.65-4.14-3.87-6.27c-1.22-2.15-2.36-4.35-3.33-6.61
				C49.67,61.9,49.28,60.93,49.21,59.88z"/>
		</g>
		<g>
			<path fill="none" stroke="#6D6E71" stroke-miterlimit="10" d="M196.44,58.87c-0.07-2.17-0.16-4.33-0.25-6.5
				c-0.011-0.13,0-0.26,0-0.4h3.579h0.351h31.27h3.801c0,0.19-0.021,0.33-0.021,0.49c-0.1,2.14-0.17,4.27-0.27,6.41"/>
			<path fill="none" stroke="#6D6E71" stroke-miterlimit="10" d="M196.48,60.17c-0.011-0.43-0.03-0.87-0.04-1.3h38.46
				c-0.04,1.11-0.091,2.22-0.141,3.33c-0.09,1.81-0.21,3.61-0.35,5.41c-0.22,3.02-0.46,6.041-0.94,9.041
				c-0.27,1.77-0.63,3.55-1.12,5.279c-0.18,0.67-0.35,1.311-0.52,1.98c-0.15,0.55-0.271,1.109-0.41,1.67
				c-0.09,0.3-0.32,0.51-0.61,0.64c-0.279,0.13-0.56,0.261-0.859,0.37c-0.88,0.33-1.76,0.68-2.641,1.01
				c-0.35,0.131-0.54,0.36-0.569,0.75c-0.07,0.9-0.181,1.801-0.271,2.7c-0.01,0.22-0.13,0.29-0.33,0.3
				c-0.52,0.021-1.02,0.051-1.529,0.051h-12.4c-2.32-0.021-4.64-0.03-6.95-0.051c-0.35,0-0.41-0.05-0.439-0.399
				c-0.08-0.75-0.21-1.49-0.21-2.24c0-0.729-0.351-1.05-1-1.27c-1.12-0.391-2.221-0.83-3.351-1.24c-0.46-0.17-0.76-0.49-0.96-0.92
				c-0.47-0.94-0.77-1.92-0.979-2.931c-0.57-2.46-0.75-4.949-1-7.43c-0.141-1.56-0.29-3.13-0.4-4.69c-0.13-1.79-0.25-3.58-0.34-5.39
				C196.53,63.28,196.54,61.73,196.48,60.17"/>
			<path fill="none" stroke="#6D6E71" stroke-miterlimit="10" d="M187.88,58.87c-0.01,0.23-0.03,0.45-0.04,0.68
				c-0.07,0.96-0.25,1.87-0.77,2.73c-0.051,0.09-0.101,0.21-0.141,0.33c-0.22,0.66-0.39,1.34-0.66,1.97
				c-0.729,1.66-1.449,3.31-2.229,4.93c-1.34,2.811-2.74,5.59-4.1,8.391c-0.381,0.81-0.79,1.609-1.091,2.439
				c-0.59,1.63-1.27,3.22-2.34,4.61c-0.42,0.55-0.85,1.09-1.54,1.319c-0.279,0.091-0.54,0.19-0.81,0.28
				c-1.11,0.37-2.24,0.75-3.351,1.11c-0.39,0.13-0.59,0.37-0.71,0.75c-0.26,0.87-0.529,1.729-0.81,2.6
				c-0.07,0.26-0.21,0.37-0.5,0.37c-1.79,0-3.58,0.021-5.37,0.021h-7.49c-2.68,0-5.35-0.021-8.04-0.021
				c-0.42,0-0.46-0.03-0.569-0.42c-0.28-0.85-0.551-1.68-0.801-2.54c-0.119-0.4-0.329-0.64-0.72-0.76c-1.359-0.43-2.7-0.9-4.06-1.3
				c-0.86-0.24-1.52-0.721-2.07-1.431c-1.45-1.89-2.54-3.979-3.54-6.12c-0.95-2.02-1.86-4.05-2.77-6.1
				c-1.17-2.64-2.28-5.3-3.18-8.04c-0.6-1.89-1.09-3.8-1.18-5.8"/>
			<path fill="none" stroke="#6D6E71" stroke-miterlimit="10" d="M129,58.87c-0.07-1.72-0.27-3.44-0.4-5.15
				c-0.06-0.58-0.1-1.16-0.15-1.75h3.31h0.19H132h52.92h0.19h0.189h3.13c-0.04,0.56-0.09,1.08-0.13,1.6
				c-0.14,1.76-0.3,3.54-0.42,5.3H129z"/>
			<path fill="none" stroke="#6D6E71" stroke-miterlimit="10" d="M49.21,59.88c-0.07-1.03-0.16-2.04-0.26-3.05
				c-0.11-1.31-0.26-2.64-0.39-3.95c-0.01-0.29-0.03-0.56-0.06-0.87h72.56c-0.03,0.21-0.03,0.38-0.04,0.55
				c-0.09,0.78-0.16,1.58-0.23,2.37"/>
			<path fill="none" stroke="#6D6E71" stroke-miterlimit="10" d="M120.79,54.93c-0.06,0.63-0.1,1.25-0.16,1.89
				c-0.1,1.01-0.19,2.03-0.29,3.06"/>
			<path fill="none" stroke="#6D6E71" stroke-miterlimit="10" d="M120.04,61.38c-0.78,1.44-1.52,2.91-2.34,4.33
				c-1.04,1.8-2.15,3.58-3.26,5.35c-1.39,2.209-2.87,4.38-4.5,6.42c-0.55,0.699-1.14,1.35-1.66,2.069c-1.33,1.9-2.67,3.79-4.3,5.48
				c-0.59,0.609-1.24,1.109-2.11,1.359c-1.4,0.391-2.77,0.841-4.16,1.261c-0.46,0.13-0.76,0.399-0.93,0.85
				c-0.36,0.85-0.75,1.69-1.12,2.52c-0.11,0.28-0.28,0.381-0.59,0.381H74.12c-0.42,0-0.46-0.051-0.64-0.42
				c-0.37-0.87-0.76-1.73-1.15-2.61c-0.14-0.34-0.38-0.57-0.74-0.68c-1.48-0.44-2.98-0.91-4.48-1.32c-0.91-0.24-1.71-0.63-2.34-1.32
				c-0.83-0.91-1.69-1.79-2.48-2.729c-1.78-2.11-3.45-4.29-5-6.57c-1.37-2.05-2.65-4.14-3.87-6.27c-1.22-2.15-2.36-4.35-3.33-6.61
				c-0.42-0.97-0.81-1.94-0.88-2.99h71.13C120.28,60.38,120.28,60.9,120.04,61.38"/>
		</g>
	</g>
</g>
</svg>
