<?xml version="1.0" encoding="utf-8"?>
<!-- Generator: Adobe Illustrator 16.0.0, SVG Export Plug-In . SVG Version: 6.00 Build 0)  -->
<!DOCTYPE svg PUBLIC "-//W3C//DTD SVG 1.1//EN" "http://www.w3.org/Graphics/SVG/1.1/DTD/svg11.dtd">
<svg version="1.1" id="Layer_1" xmlns="http://www.w3.org/2000/svg" xmlns:xlink="http://www.w3.org/1999/xlink" x="0px" y="0px"
	 width="283.46px" height="141.73px" viewBox="0 0 283.46 141.73" enable-background="new 0 0 283.46 141.73" xml:space="preserve">
<g id="XMLID_3_">
	<g>
		<g id="XMLID_1_">
			<g>
				<path fill="#EAB61F" d="M200.12,51.975h31.271h3.8c0,0.18-0.02,0.32-0.02,0.48c-0.101,2.15-0.171,4.28-0.271,6.41h-38.46
					c-0.07-2.17-0.16-4.33-0.25-6.5c-0.01-0.12,0-0.25,0-0.39h3.58H200.12z"/>
				<path fill="#FFFFFF" d="M196.44,58.865h38.46c-0.04,1.12-0.09,2.22-0.14,3.33c-0.09,1.81-0.21,3.62-0.351,5.42
					c-0.22,3.01-0.46,6.04-0.939,9.04c-0.271,1.77-0.63,3.55-1.12,5.28c-0.18,0.67-0.351,1.31-0.521,1.97
					c-0.149,0.55-0.27,1.11-0.409,1.67c-0.091,0.3-0.32,0.51-0.61,0.65c-0.28,0.13-0.561,0.26-0.86,0.359
					c-0.88,0.33-1.76,0.69-2.64,1.021c-0.35,0.13-0.54,0.35-0.57,0.75c-0.069,0.89-0.18,1.8-0.27,2.689
					c-0.01,0.23-0.13,0.29-0.33,0.311c-0.521,0.02-1.021,0.05-1.53,0.05H212.21c-2.32-0.03-4.641-0.03-6.95-0.05
					c-0.351,0-0.41-0.061-0.44-0.4c-0.08-0.75-0.21-1.49-0.21-2.24c0-0.729-0.35-1.05-1-1.27c-1.12-0.4-2.22-0.83-3.35-1.24
					c-0.46-0.17-0.761-0.49-0.96-0.92c-0.471-0.939-0.771-1.92-0.98-2.93c-0.57-2.46-0.75-4.95-1-7.44
					c-0.14-1.55-0.29-3.13-0.399-4.68c-0.131-1.79-0.25-3.58-0.341-5.4c-0.05-1.55-0.04-3.1-0.1-4.67
					C196.47,59.745,196.45,59.295,196.44,58.865z"/>
				<path fill="#FFFFFF" d="M132,51.975h52.92h0.189h0.19h3.13c-0.04,0.56-0.09,1.07-0.13,1.6c-0.141,1.75-0.301,3.54-0.42,5.29H129
					c-0.07-1.71-0.27-3.43-0.4-5.14c-0.06-0.58-0.1-1.16-0.15-1.75h3.31h0.19H132z"/>
				<path fill="#F16D5A" d="M129,58.865h58.88c-0.011,0.24-0.03,0.46-0.04,0.68c-0.07,0.96-0.25,1.87-0.771,2.74
					c-0.05,0.08-0.1,0.2-0.14,0.33c-0.22,0.66-0.391,1.33-0.66,1.96c-0.73,1.67-1.45,3.32-2.23,4.93c-1.34,2.82-2.739,5.6-4.1,8.4
					c-0.38,0.81-0.79,1.6-1.09,2.43c-0.59,1.641-1.271,3.23-2.34,4.61c-0.42,0.55-0.851,1.09-1.54,1.32
					c-0.28,0.1-0.54,0.189-0.811,0.279c-1.109,0.37-2.239,0.75-3.35,1.11c-0.39,0.13-0.59,0.37-0.71,0.75
					c-0.26,0.87-0.53,1.729-0.811,2.6c-0.069,0.261-0.21,0.37-0.5,0.37c-1.79,0-3.579,0.03-5.369,0.03h-7.49
					c-2.681,0-5.351-0.03-8.04-0.03c-0.42,0-0.46-0.029-0.57-0.42c-0.28-0.85-0.55-1.68-0.8-2.54c-0.12-0.399-0.33-0.64-0.72-0.76
					c-1.36-0.43-2.7-0.9-4.061-1.3c-0.86-0.24-1.52-0.721-2.07-1.431c-1.45-1.89-2.54-3.979-3.54-6.119
					c-0.95-2.021-1.86-4.051-2.77-6.101c-1.17-2.64-2.28-5.3-3.18-8.04C129.58,62.775,129.09,60.865,129,58.865z"/>
				<rect x="49.21" y="59.875" fill="#F16D5A" width="71.13" height="0.01"/>
				<path fill="#FFFFFF" d="M49.21,59.885h71.13c-0.06,0.49-0.06,1.02-0.3,1.49c-0.78,1.45-1.52,2.91-2.34,4.33
					c-1.04,1.8-2.15,3.58-3.26,5.36c-1.39,2.2-2.87,4.38-4.5,6.42c-0.55,0.689-1.14,1.34-1.66,2.06c-1.33,1.9-2.67,3.79-4.3,5.48
					c-0.59,0.609-1.24,1.109-2.11,1.359c-1.4,0.391-2.77,0.841-4.16,1.261c-0.46,0.13-0.76,0.399-0.93,0.85
					c-0.36,0.851-0.75,1.69-1.12,2.521c-0.11,0.279-0.28,0.39-0.59,0.39H74.12c-0.42,0-0.46-0.06-0.64-0.42
					c-0.37-0.87-0.76-1.74-1.15-2.62c-0.14-0.33-0.38-0.57-0.74-0.67c-1.48-0.45-2.98-0.91-4.48-1.33
					c-0.91-0.24-1.71-0.62-2.34-1.32c-0.83-0.899-1.69-1.79-2.48-2.72c-1.78-2.11-3.45-4.29-5-6.57c-1.37-2.05-2.65-4.14-3.87-6.27
					c-1.22-2.15-2.36-4.35-3.33-6.61C49.67,61.905,49.28,60.935,49.21,59.885z"/>
				<path fill="#21597B" d="M48.5,52.005h72.56c-0.03,0.22-0.03,0.39-0.04,0.56c-0.09,0.77-0.16,1.58-0.23,2.37
					c-0.06,0.63-0.1,1.25-0.16,1.89c-0.1,1-0.19,2.03-0.29,3.05H49.21c-0.07-1.02-0.16-2.04-0.26-3.05
					c-0.11-1.3-0.26-2.63-0.39-3.95C48.55,52.585,48.53,52.325,48.5,52.005z"/>
			</g>
			<g>
				<path fill="none" stroke="#6D6E71" stroke-miterlimit="10" d="M196.44,58.865c-0.07-2.17-0.16-4.33-0.25-6.5
					c-0.01-0.12,0-0.25,0-0.39h3.58h0.35h31.271h3.8c0,0.18-0.02,0.32-0.02,0.48c-0.101,2.15-0.171,4.28-0.271,6.41"/>
				<path fill="none" stroke="#6D6E71" stroke-miterlimit="10" d="M196.48,60.165c-0.01-0.42-0.03-0.87-0.04-1.3h38.46
					c-0.04,1.12-0.09,2.22-0.14,3.33c-0.09,1.81-0.21,3.62-0.351,5.42c-0.22,3.01-0.46,6.04-0.939,9.04
					c-0.271,1.77-0.63,3.55-1.12,5.28c-0.18,0.67-0.351,1.31-0.521,1.97c-0.149,0.55-0.27,1.11-0.409,1.67
					c-0.091,0.3-0.32,0.51-0.61,0.65c-0.28,0.13-0.561,0.26-0.86,0.359c-0.88,0.33-1.76,0.69-2.64,1.021
					c-0.35,0.13-0.54,0.35-0.57,0.75c-0.069,0.89-0.18,1.8-0.27,2.689c-0.01,0.23-0.13,0.29-0.33,0.311
					c-0.521,0.02-1.021,0.05-1.53,0.05H212.21c-2.32-0.03-4.641-0.03-6.95-0.05c-0.351,0-0.41-0.061-0.44-0.4
					c-0.08-0.75-0.21-1.49-0.21-2.24c0-0.729-0.35-1.05-1-1.27c-1.12-0.4-2.22-0.83-3.35-1.24c-0.46-0.17-0.761-0.49-0.96-0.92
					c-0.471-0.939-0.771-1.92-0.98-2.93c-0.57-2.46-0.75-4.95-1-7.44c-0.14-1.55-0.29-3.13-0.399-4.68
					c-0.131-1.79-0.25-3.58-0.341-5.4C196.53,63.285,196.54,61.735,196.48,60.165"/>
				<path fill="none" stroke="#6D6E71" stroke-miterlimit="10" d="M187.88,58.865c-0.011,0.24-0.03,0.46-0.04,0.68
					c-0.07,0.96-0.25,1.87-0.771,2.74c-0.05,0.08-0.1,0.2-0.14,0.33c-0.22,0.66-0.391,1.33-0.66,1.96
					c-0.73,1.67-1.45,3.32-2.23,4.93c-1.34,2.82-2.739,5.6-4.1,8.4c-0.38,0.81-0.79,1.6-1.09,2.43c-0.59,1.641-1.271,3.23-2.34,4.61
					c-0.42,0.55-0.851,1.09-1.54,1.32c-0.28,0.1-0.54,0.189-0.811,0.279c-1.109,0.37-2.239,0.75-3.35,1.11
					c-0.39,0.13-0.59,0.37-0.71,0.75c-0.26,0.87-0.53,1.729-0.811,2.6c-0.069,0.261-0.21,0.37-0.5,0.37
					c-1.79,0-3.579,0.03-5.369,0.03h-7.49c-2.681,0-5.351-0.03-8.04-0.03c-0.42,0-0.46-0.029-0.57-0.42
					c-0.28-0.85-0.55-1.68-0.8-2.54c-0.12-0.399-0.33-0.64-0.72-0.76c-1.36-0.43-2.7-0.9-4.061-1.3
					c-0.86-0.24-1.52-0.721-2.07-1.431c-1.45-1.89-2.54-3.979-3.54-6.119c-0.95-2.021-1.86-4.051-2.77-6.101
					c-1.17-2.64-2.28-5.3-3.18-8.04c-0.6-1.89-1.09-3.8-1.18-5.8"/>
				<path fill="none" stroke="#6D6E71" stroke-miterlimit="10" d="M129,58.865c-0.07-1.71-0.27-3.43-0.4-5.14
					c-0.06-0.58-0.1-1.16-0.15-1.75h3.31h0.19H132h52.92h0.189h0.19h3.13c-0.04,0.56-0.09,1.07-0.13,1.6
					c-0.141,1.75-0.301,3.54-0.42,5.29H129z"/>
				<path fill="none" stroke="#6D6E71" stroke-miterlimit="10" d="M49.21,59.875c-0.07-1.02-0.16-2.04-0.26-3.05
					c-0.11-1.3-0.26-2.63-0.39-3.95c-0.01-0.29-0.03-0.55-0.06-0.87h72.56c-0.03,0.22-0.03,0.39-0.04,0.56
					c-0.09,0.77-0.16,1.58-0.23,2.37"/>
				<path fill="none" stroke="#6D6E71" stroke-miterlimit="10" d="M120.79,54.935c-0.06,0.63-0.1,1.25-0.16,1.89
					c-0.1,1-0.19,2.03-0.29,3.05"/>
				<path fill="none" stroke="#6D6E71" stroke-miterlimit="10" d="M120.04,61.375c-0.78,1.45-1.52,2.91-2.34,4.33
					c-1.04,1.8-2.15,3.58-3.26,5.36c-1.39,2.2-2.87,4.38-4.5,6.42c-0.55,0.689-1.14,1.34-1.66,2.06c-1.33,1.9-2.67,3.79-4.3,5.48
					c-0.59,0.609-1.24,1.109-2.11,1.359c-1.4,0.391-2.77,0.841-4.16,1.261c-0.46,0.13-0.76,0.399-0.93,0.85
					c-0.36,0.851-0.75,1.69-1.12,2.521c-0.11,0.279-0.28,0.39-0.59,0.39H74.12c-0.42,0-0.46-0.06-0.64-0.42
					c-0.37-0.87-0.76-1.74-1.15-2.62c-0.14-0.33-0.38-0.57-0.74-0.67c-1.48-0.45-2.98-0.91-4.48-1.33
					c-0.91-0.24-1.71-0.62-2.34-1.32c-0.83-0.899-1.69-1.79-2.48-2.72c-1.78-2.11-3.45-4.29-5-6.57c-1.37-2.05-2.65-4.14-3.87-6.27
					c-1.22-2.15-2.36-4.35-3.33-6.61c-0.42-0.97-0.81-1.94-0.88-2.99h71.13C120.28,60.375,120.28,60.905,120.04,61.375"/>
			</g>
		</g>
	</g>
</g>
</svg>
