<?xml version="1.0" encoding="utf-8"?>
<!-- Generator: Adobe Illustrator 16.0.0, SVG Export Plug-In . SVG Version: 6.00 Build 0)  -->
<!DOCTYPE svg PUBLIC "-//W3C//DTD SVG 1.1//EN" "http://www.w3.org/Graphics/SVG/1.1/DTD/svg11.dtd">
<svg version="1.1" id="Layer_1" xmlns="http://www.w3.org/2000/svg" xmlns:xlink="http://www.w3.org/1999/xlink" x="0px" y="0px"
	 width="283.46px" height="56.69px" viewBox="0 0 283.46 56.69" enable-background="new 0 0 283.46 56.69" xml:space="preserve">
<path fill="#E9B620" d="M265.139,25.164c1.795,0,3.256,1.453,3.256,3.255c0,1.794-1.461,3.255-3.256,3.255
	c-1.803,0-3.263-1.461-3.263-3.255C261.876,26.617,263.336,25.164,265.139,25.164z"/>
<path fill="#21597B" d="M248.839,28.419c0,1.794-1.46,3.255-3.255,3.255c-1.803,0-3.263-1.461-3.263-3.255
	c0-1.803,1.46-3.255,3.263-3.255C247.379,25.164,248.839,26.617,248.839,28.419z"/>
<path fill="#E9B620" d="M235.803,28.419c0,1.794-1.46,3.255-3.256,3.255c-1.802,0-3.263-1.461-3.263-3.255
	c0-1.803,1.461-3.255,3.263-3.255C234.343,25.164,235.803,26.617,235.803,28.419z"/>
<path fill="#F16D5A" d="M222.773,28.419c0,1.794-1.46,3.255-3.255,3.255c-1.803,0-3.256-1.461-3.256-3.255
	c0-1.803,1.453-3.255,3.256-3.255C221.313,25.164,222.773,26.617,222.773,28.419z"/>
<path fill="#21597B" d="M203.233,28.419c0,1.794-1.452,3.255-3.255,3.255c-1.795,0-3.256-1.461-3.256-3.255
	c0-1.803,1.461-3.255,3.256-3.255C201.781,25.164,203.233,26.617,203.233,28.419z"/>
<path fill="#F16D5A" d="M190.212,28.419c0,1.794-1.46,3.255-3.255,3.255c-1.803,0-3.263-1.461-3.263-3.255
	c0-1.803,1.46-3.255,3.263-3.255C188.752,25.164,190.212,26.617,190.212,28.419z"/>
<path fill="#F16D5A" d="M177.184,28.419c0,1.794-1.453,3.255-3.256,3.255c-1.795,0-3.255-1.461-3.255-3.255
	c0-1.803,1.46-3.255,3.255-3.255C175.73,25.164,177.184,26.617,177.184,28.419z"/>
<path fill="#E9B620" d="M164.162,28.419c0,1.794-1.461,3.255-3.256,3.255c-1.803,0-3.263-1.461-3.263-3.255
	c0-1.803,1.46-3.255,3.263-3.255C162.701,25.164,164.162,26.617,164.162,28.419z"/>
<path fill="#F16D5A" d="M144.622,28.419c0,1.794-1.46,3.255-3.255,3.255c-1.803,0-3.255-1.461-3.255-3.255
	c0-1.803,1.453-3.255,3.255-3.255C143.162,25.164,144.622,26.617,144.622,28.419z"/>
<path fill="#F16D5A" d="M131.593,28.419c0,1.794-1.453,3.255-3.255,3.255c-1.795,0-3.255-1.461-3.255-3.255
	c0-1.803,1.46-3.255,3.255-3.255C130.14,25.164,131.593,26.617,131.593,28.419z"/>
<path fill="#21597B" d="M118.572,28.419c0,1.794-1.46,3.255-3.255,3.255c-1.803,0-3.255-1.461-3.255-3.255
	c0-1.803,1.453-3.255,3.255-3.255C117.111,25.164,118.572,26.617,118.572,28.419z"/>
<path fill="#21597B" d="M105.542,28.419c0,1.794-1.453,3.255-3.255,3.255c-1.795,0-3.255-1.461-3.255-3.255
	c0-1.803,1.46-3.255,3.255-3.255C104.09,25.164,105.542,26.617,105.542,28.419z"/>
<path fill="#E9B620" d="M92.521,28.419c0,1.794-1.46,3.255-3.255,3.255c-1.802,0-3.255-1.461-3.255-3.255
	c0-1.803,1.453-3.255,3.255-3.255C91.061,25.164,92.521,26.617,92.521,28.419z"/>
<path fill="#E9B620" d="M79.492,28.419c0,1.794-1.453,3.255-3.255,3.255c-1.795,0-3.255-1.461-3.255-3.255
	c0-1.803,1.46-3.255,3.255-3.255C78.04,25.164,79.492,26.617,79.492,28.419z"/>
<path fill="#21597B" d="M59.96,28.419c0,1.794-1.46,3.255-3.255,3.255c-1.803,0-3.263-1.461-3.263-3.255
	c0-1.803,1.46-3.255,3.263-3.255C58.5,25.164,59.96,26.617,59.96,28.419z"/>
<path fill="#21597B" d="M46.931,28.419c0,1.794-1.453,3.255-3.255,3.255c-1.795,0-3.255-1.461-3.255-3.255
	c0-1.803,1.46-3.255,3.255-3.255C45.478,25.164,46.931,26.617,46.931,28.419z"/>
<path fill="#F16D5A" d="M33.91,28.419c0,1.794-1.46,3.255-3.255,3.255c-1.803,0-3.263-1.461-3.263-3.255
	c0-1.803,1.46-3.255,3.263-3.255C32.449,25.164,33.91,26.617,33.91,28.419z"/>
<path fill="#F16D5A" d="M20.88,28.419c0,1.794-1.453,3.255-3.255,3.255c-1.795,0-3.255-1.461-3.255-3.255
	c0-1.803,1.46-3.255,3.255-3.255C19.428,25.164,20.88,26.617,20.88,28.419z"/>
<rect x="17.626" y="25.161" fill="#F16D5A" width="13.029" height="6.51"/>
<rect x="43.676" y="25.161" fill="#21597B" width="13.029" height="6.51"/>
<rect x="76.237" y="25.161" fill="#E9B620" width="13.029" height="6.51"/>
<rect x="102.288" y="25.161" fill="#21597B" width="13.028" height="6.51"/>
<rect x="128.339" y="25.161" fill="#F16D5A" width="13.028" height="6.51"/>
<rect x="173.926" y="25.161" fill="#F16D5A" width="13.028" height="6.51"/>
</svg>
