<?xml version="1.0" encoding="utf-8"?>
<!-- Generator: Adobe Illustrator 16.0.0, SVG Export Plug-In . SVG Version: 6.00 Build 0)  -->
<!DOCTYPE svg PUBLIC "-//W3C//DTD SVG 1.1//EN" "http://www.w3.org/Graphics/SVG/1.1/DTD/svg11.dtd">
<svg version="1.1" id="Layer_1" xmlns="http://www.w3.org/2000/svg" xmlns:xlink="http://www.w3.org/1999/xlink" x="0px" y="0px"
	 width="141.73px" height="141.73px" viewBox="0 0 141.73 141.73" enable-background="new 0 0 141.73 141.73" xml:space="preserve">
<g id="XMLID_2_">
	<g>
		<path fill="#FFFFFF" d="M229.166,99.732h108.583c0,0.442-0.079,0.81-0.079,1.246c-0.143,1.764-0.435,3.523-1.381,5.065
			c-0.157,0.144-0.222,0.364-0.294,0.586c-0.374,1.246-0.745,2.494-1.247,3.67c-1.255,3.01-2.646,6.091-4.118,9.021
			c-2.423,5.209-4.989,10.346-7.48,15.555c-0.744,1.471-1.47,2.938-2.059,4.479c-1.095,3.01-2.351,5.939-4.326,8.513
			c-0.737,0.953-1.541,1.979-2.867,2.414c-0.508,0.15-0.95,0.373-1.462,0.51c-2.049,0.666-4.104,1.404-6.161,2.064
			c-0.735,0.221-1.096,0.658-1.325,1.389c-0.436,1.621-0.951,3.158-1.459,4.764c-0.146,0.523-0.438,0.738-0.955,0.666
			c-3.295,0-6.591,0.078-9.901,0.078c-4.619,0-9.171,0-13.792,0c-4.993,0-9.908,0-14.831-0.078c-0.797,0-0.875,0-1.088-0.729
			c-0.518-1.611-0.961-3.158-1.471-4.699c-0.223-0.738-0.588-1.168-1.326-1.389c-2.492-0.803-4.985-1.687-7.484-2.424
			c-1.542-0.438-2.788-1.318-3.813-2.636c-2.644-3.452-4.699-7.339-6.534-11.3c-1.763-3.669-3.444-7.487-5.059-11.221
			c-2.207-4.845-4.256-9.759-5.875-14.823C230.27,106.927,229.316,103.4,229.166,99.732z"/>
		<path fill="#FFFFFF" d="M337.749,99.732H229.166c-0.143-3.152-0.508-6.313-0.729-9.465c-0.152-1.097-0.226-2.129-0.295-3.226
			c2.056,0,4.104,0,6.09,0h0.366h0.144h97.583h0.295h0.365c1.983,0,3.816,0,5.797,0c-0.073,1.025-0.151,1.979-0.295,2.931
			C338.265,93.203,337.973,96.508,337.749,99.732z"/>
	</g>
	<g>
		<path fill="#FFFFFF" d="M234.232,87.043c-1.984,0-4.034,0-6.09,0c0.069,1.097,0.143,2.129,0.295,3.226
			c0.221,3.151,0.586,6.313,0.729,9.465c0.15,3.668,1.104,7.193,2.199,10.711c1.621,5.066,3.67,9.979,5.877,14.824
			c1.612,3.739,3.295,7.551,5.059,11.221c1.834,3.962,3.89,7.844,6.533,11.297c1.025,1.326,2.271,2.207,3.813,2.639
			c2.492,0.736,4.994,1.617,7.494,2.421c0.731,0.223,1.088,0.659,1.317,1.391c0.519,1.541,0.951,3.088,1.47,4.701
			c0.215,0.729,0.295,0.729,1.088,0.729c4.916,0.078,9.831,0.078,14.824,0.078c4.621,0,9.173,0,13.792,0
			c3.303,0,6.602-0.078,9.901-0.078c0.517,0.078,0.809-0.143,0.961-0.66c0.508-1.61,1.033-3.151,1.462-4.764
			c0.222-0.738,0.587-1.168,1.325-1.389c2.049-0.66,4.104-1.398,6.162-2.06c0.508-0.143,0.951-0.364,1.463-0.502
			c1.324-0.448,2.127-1.469,2.863-2.42c1.979-2.58,3.226-5.504,4.327-8.514c0.587-1.539,1.32-3.008,2.057-4.478
			c2.495-5.209,5.053-10.34,7.48-15.556c1.468-2.929,2.872-6.011,4.118-9.02c0.502-1.176,0.876-2.424,1.246-3.669
			c0.073-0.224,0.146-0.443,0.295-0.588c0.955-1.542,1.247-3.304,1.384-5.064c0-0.438,0.079-0.803,0.079-1.247
			c0.216-3.226,0.508-6.528,0.738-9.76c0.149-0.952,0.222-1.904,0.292-2.93c-1.985,0-3.818,0-5.794,0"/>
		<path fill="#FFFFFF" d="M332.325,86.82c0,0.072,0,0.145,0,0.223"/>
		<path fill="#FFFFFF" d="M234.599,87.043c0-0.078,0-0.149,0-0.223"/>
		<polyline fill="#FFFFFF" points="332.62,87.043 332.325,87.043 234.742,87.043 		"/>
		<line fill="none" x1="229.166" y1="99.732" x2="337.749" y2="99.732"/>
	</g>
</g>
<g id="XMLID_1_">
	<g>
		<path fill="#FFF200" d="M17.167,47.732H125.75c0,0.444-0.079,0.81-0.079,1.247c-0.143,1.763-0.435,3.523-1.381,5.065
			c-0.157,0.144-0.222,0.365-0.294,0.586c-0.374,1.247-0.745,2.495-1.247,3.669c-1.255,3.01-2.645,6.091-4.118,9.021
			c-2.423,5.209-4.988,10.346-7.48,15.555c-0.744,1.471-1.469,2.938-2.059,4.479c-1.095,3.01-2.351,5.939-4.325,8.513
			c-0.738,0.953-1.541,1.979-2.867,2.414c-0.508,0.15-0.951,0.373-1.462,0.51c-2.049,0.666-4.104,1.404-6.162,2.064
			c-0.735,0.221-1.095,0.658-1.325,1.389c-0.435,1.621-0.951,3.158-1.459,4.764c-0.146,0.523-0.438,0.738-0.955,0.666
			c-3.295,0-6.591,0.078-9.901,0.078c-4.619,0-9.171,0-13.792,0c-4.993,0-9.908,0-14.83-0.078c-0.797,0-0.875,0-1.089-0.729
			c-0.517-1.611-0.96-3.158-1.471-4.699c-0.223-0.738-0.587-1.168-1.325-1.389c-2.493-0.803-4.985-1.687-7.485-2.424
			c-1.542-0.438-2.788-1.318-3.813-2.636c-2.643-3.452-4.699-7.339-6.534-11.3c-1.763-3.669-3.445-7.487-5.059-11.221
			c-2.207-4.844-4.256-9.758-5.875-14.824C18.27,54.927,17.317,51.4,17.167,47.732z"/>
		<path fill="#FFF200" d="M125.749,47.732H17.167c-0.143-3.152-0.508-6.313-0.729-9.465c-0.152-1.097-0.225-2.128-0.295-3.225
			c2.056,0,4.104,0,6.09,0h0.366h0.143h97.583h0.295h0.365c1.983,0,3.816,0,5.797,0c-0.073,1.024-0.151,1.979-0.295,2.93
			C126.266,41.204,125.974,44.508,125.749,47.732z"/>
	</g>
	<g>
		<path fill="#1E587B" d="M22.232,35.043c-1.985,0-4.034,0-6.09,0c0.07,1.097,0.143,2.128,0.295,3.225
			c0.222,3.152,0.586,6.313,0.729,9.465c0.15,3.668,1.104,7.194,2.199,10.711c1.62,5.066,3.669,9.979,5.876,14.824
			c1.613,3.739,3.296,7.551,5.059,11.221c1.835,3.962,3.891,7.844,6.534,11.297c1.024,1.326,2.271,2.207,3.813,2.639
			c2.492,0.736,4.994,1.617,7.493,2.421c0.731,0.223,1.088,0.659,1.318,1.391c0.518,1.541,0.951,3.088,1.468,4.701
			c0.217,0.729,0.296,0.729,1.089,0.729c4.916,0.078,9.831,0.078,14.824,0.078c4.621,0,9.173,0,13.792,0
			c3.303,0,6.602-0.078,9.901-0.078c0.517,0.078,0.809-0.143,0.961-0.66c0.508-1.61,1.033-3.151,1.462-4.764
			c0.223-0.738,0.587-1.168,1.325-1.389c2.049-0.66,4.104-1.398,6.162-2.06c0.508-0.143,0.951-0.364,1.463-0.502
			c1.324-0.448,2.127-1.469,2.863-2.42c1.979-2.58,3.226-5.504,4.328-8.514c0.587-1.539,1.319-3.008,2.056-4.478
			c2.495-5.209,5.053-10.34,7.48-15.556c1.469-2.929,2.872-6.01,4.118-9.02c0.502-1.176,0.876-2.424,1.246-3.669
			c0.073-0.223,0.146-0.443,0.295-0.587c0.955-1.542,1.247-3.303,1.384-5.065c0-0.438,0.079-0.803,0.079-1.247
			c0.217-3.226,0.509-6.528,0.738-9.76c0.149-0.953,0.222-1.904,0.292-2.93c-1.985,0-3.818,0-5.794,0"/>
		<path fill="#FFF200" d="M120.325,34.82c0,0.073,0,0.145,0,0.224"/>
		<path fill="#FFF200" d="M22.599,35.043c0-0.079,0-0.149,0-0.224"/>
		<polyline fill="#FFF200" points="120.62,35.043 120.325,35.043 22.742,35.043 		"/>
		<line fill="none" x1="17.167" y1="47.732" x2="125.749" y2="47.732"/>
	</g>
</g>
<g id="XMLID_3_">
	<g>
		<path fill="none" stroke="#6D6E71" stroke-width="3" stroke-miterlimit="10" d="M138.124,42.304
			c0.226-3.225,0.518-6.528,0.738-9.76c0.144-0.951,0.222-1.905,0.295-2.93c-1.98,0-3.813,0-5.797,0h-0.365H132.7H35.117h-0.143
			h-0.366c-1.985,0-4.034,0-6.09,0c0.07,1.097,0.143,2.128,0.295,3.225c0.221,3.152,0.586,6.313,0.729,9.465
			c0.15,3.668,1.104,7.194,2.194,10.719c1.619,5.066,3.668,9.98,5.875,14.824c1.613,3.733,3.296,7.552,5.059,11.221
			c1.835,3.961,3.892,7.848,6.534,11.3c1.025,1.317,2.271,2.197,3.813,2.636c2.5,0.737,4.992,1.621,7.485,2.424
			c0.738,0.221,1.103,0.65,1.325,1.389c0.511,1.541,0.954,3.088,1.471,4.699c0.214,0.729,0.292,0.729,1.089,0.729
			c4.922,0.078,9.837,0.078,14.83,0.078c4.621,0,9.173,0,13.792,0c3.311,0,6.606-0.078,9.901-0.078
			c0.518,0.072,0.81-0.143,0.955-0.666c0.508-1.605,1.024-3.143,1.459-4.764c0.23-0.73,0.59-1.168,1.325-1.389
			c2.058-0.66,4.113-1.398,6.162-2.064c0.511-0.137,0.954-0.359,1.462-0.51c1.326-0.435,2.129-1.461,2.867-2.414
			c1.975-2.573,3.23-5.503,4.325-8.513c0.59-1.54,1.314-3.008,2.059-4.479c2.492-5.209,5.058-10.346,7.48-15.555
			c1.474-2.93,2.863-6.011,4.118-9.021c0.502-1.174,0.873-2.422,1.247-3.669c0.072-0.221,0.137-0.442,0.294-0.586
			c0.946-1.542,1.238-3.303,1.381-5.065C138.046,43.114,138.125,42.749,138.124,42.304z"/>
	</g>
	<path fill="none" stroke="#6D6E71" stroke-width="3" stroke-miterlimit="10" d="M131.568,29.62h1.799c1.976,0,3.809,0,5.794,0
		c-0.07,1.025-0.143,1.977-0.292,2.93c-0.229,3.231-0.521,6.534-0.738,9.76c0,0.444-0.079,0.809-0.079,1.247
		c-0.137,1.763-0.429,3.523-1.384,5.065c-0.148,0.144-0.222,0.364-0.295,0.587c-0.37,1.245-0.744,2.493-1.246,3.669
		c-1.246,3.01-2.649,6.091-4.118,9.02c-2.428,5.216-4.985,10.347-7.48,15.556c-0.736,1.47-1.469,2.938-2.056,4.478
		c-1.103,3.01-2.35,5.934-4.328,8.514c-0.736,0.951-1.539,1.972-2.863,2.42c-0.512,0.138-0.955,0.359-1.463,0.502
		c-2.059,0.661-4.113,1.399-6.162,2.06c-0.738,0.221-1.103,0.65-1.325,1.389c-0.429,1.612-0.954,3.153-1.462,4.764
		c-0.152,0.518-0.444,0.738-0.961,0.66c-3.3,0-6.599,0.078-9.901,0.078c-4.619,0-9.171,0-13.792,0c-4.993,0-9.908,0-14.824-0.078
		c-0.793,0-0.872,0-1.089-0.729c-0.517-1.613-0.95-3.16-1.468-4.701c-0.23-0.731-0.587-1.168-1.318-1.391
		c-2.499-0.804-5.001-1.685-7.493-2.421c-1.542-0.432-2.789-1.313-3.813-2.639c-2.644-3.453-4.699-7.335-6.534-11.297
		c-1.763-3.67-3.445-7.481-5.059-11.221c-2.207-4.845-4.256-9.758-5.876-14.824c-1.095-3.517-2.049-7.043-2.199-10.711
		c-0.143-3.152-0.507-6.313-0.729-9.465c-0.152-1.097-0.225-2.128-0.295-3.225c2.056,0,4.104,0,6.09,0l0.367-0.224
		c0,0.074,0,0.145,0,0.224h0.143H132.7h0.295l-0.295,0.001c0-0.079,0-0.15,0-0.224"/>
</g>
</svg>
