<?xml version="1.0" encoding="utf-8"?>
<!-- Generator: Adobe Illustrator 16.0.0, SVG Export Plug-In . SVG Version: 6.00 Build 0)  -->
<!DOCTYPE svg PUBLIC "-//W3C//DTD SVG 1.1//EN" "http://www.w3.org/Graphics/SVG/1.1/DTD/svg11.dtd">
<svg version="1.1" id="Layer_1" xmlns="http://www.w3.org/2000/svg" xmlns:xlink="http://www.w3.org/1999/xlink" x="0px" y="0px"
	 width="283.46px" height="283.46px" viewBox="0 0 283.46 283.46" enable-background="new 0 0 283.46 283.46" xml:space="preserve">
<g>
	<path fill-rule="evenodd" clip-rule="evenodd" d="M25.105,101.442c0.274,0.005,0.548,0.014,0.822,0.014c20.541,0,41.082,0,61.623,0
		c0.252,0,0.504,0,0.843,0c-0.314,1.105-0.611,2.15-0.91,3.195c-1.026,3.588-2.064,7.173-3.066,10.768
		c-0.151,0.541-0.367,0.728-0.948,0.726c-6.247-0.024-12.493-0.015-18.739-0.015c-0.833,0-0.835,0-0.835,0.823
		c0,21.892,0,43.785,0,65.676c0,0.287,0,0.574,0,0.892c-6.335,0-12.592,0-18.946,0c0-0.298,0-0.583,0-0.867
		c0-21.854,0-43.706-0.001-65.559c0-1.106,0.082-0.963-0.985-0.964c-6.286-0.004-12.571-0.002-18.857-0.003
		C25.105,111.233,25.105,106.338,25.105,101.442z"/>
	<path fill-rule="evenodd" clip-rule="evenodd" d="M216.275,80.88c-0.512,1.72-1.038,3.436-1.533,5.162
		c-8.963,31.231-17.922,62.463-26.881,93.696c-2.284,7.964-4.566,15.927-6.852,23.891c-0.026,0.093-0.067,0.183-0.102,0.272
		c-4.347,0-8.694,0-13.042,0c1.583-5.54,3.161-11.081,4.75-16.62c7.938-27.675,15.878-55.348,23.816-83.022
		c2.214-7.717,4.426-15.434,6.639-23.15c0.021-0.074,0.03-0.152,0.045-0.228C207.502,80.88,211.889,80.88,216.275,80.88z"/>
	<path fill-rule="evenodd" clip-rule="evenodd" d="M140.124,101.483c6.002,0,11.89,0,17.849,0c0,0.235,0,0.443,0,0.652
		c0,18.896,0.004,37.793-0.002,56.689c-0.002,3.684-0.458,7.298-1.808,10.757c-2.099,5.376-5.907,9.088-11.15,11.377
		c-3.456,1.511-7.101,2.257-10.84,2.606c-3.637,0.34-7.274,0.34-10.906-0.022c-4.171-0.416-8.219-1.322-11.979-3.258
		c-5.758-2.963-9.246-7.68-10.731-13.937c-0.573-2.411-0.805-4.863-0.806-7.334c-0.008-18.995-0.004-37.989-0.005-56.983
		c0-0.156,0-0.312,0-0.522c5.94,0,11.855,0,17.852,0c0,0.299,0,0.586,0,0.874c0,17.369-0.003,34.737,0.003,52.106
		c0.001,2.669,0.176,5.317,1.111,7.859c1.391,3.777,4.18,5.719,8.09,6.196c1.881,0.229,3.754,0.17,5.601-0.268
		c3.723-0.884,5.898-3.331,6.929-6.92c0.655-2.281,0.788-4.622,0.789-6.975c0.005-17.33,0.002-34.66,0.002-51.99
		C140.124,102.104,140.124,101.816,140.124,101.483z"/>
	<path fill-rule="evenodd" clip-rule="evenodd" d="M228.704,159.826c0.072,3.58,0.544,6.942,2.72,9.812
		c1.864,2.46,4.461,3.571,7.471,3.721c5.434,0.267,10.173-1.551,14.352-4.955c0.121-0.099,0.241-0.197,0.436-0.356
		c1.802,2.776,3.593,5.536,5.442,8.387c-1.046,0.746-2.036,1.506-3.077,2.188c-3.724,2.434-7.738,4.152-12.153,4.871
		c-2.492,0.406-4.992,0.391-7.494,0.169c-3.297-0.293-6.479-1.054-9.465-2.519c-5.264-2.578-8.79-6.75-10.95-12.124
		c-2.013-5.009-2.629-10.235-2.327-15.598c0.213-3.771,0.836-7.458,2.166-11.004c1.824-4.864,4.703-8.909,9.199-11.666
		c2.888-1.771,6.052-2.713,9.413-2.997c3.556-0.3,7.073-0.103,10.514,0.939c5.312,1.608,9.074,5.004,11.492,9.95
		c1.66,3.396,2.585,7.017,2.897,10.756c0.278,3.329,0.273,6.683,0.392,10.024c0.004,0.113-0.016,0.227-0.029,0.402
		C249.382,159.826,239.093,159.826,228.704,159.826z M245.203,149.694c0.07-2.807-0.04-5.528-1.29-8.063
		c-0.958-1.942-2.483-3.205-4.627-3.609c-0.818-0.154-1.672-0.181-2.507-0.169c-2.37,0.033-4.255,1.03-5.621,2.977
		c-1.138,1.623-1.692,3.468-1.967,5.399c-0.161,1.131-0.217,2.276-0.324,3.465C234.379,149.694,239.749,149.694,245.203,149.694z"/>
</g>
</svg>
